<svg xmlns="http://www.w3.org/2000/svg" width="48" height="48"><rect width="48" height="48" ry="12.443" fill="#5e7a90"/><text style="-inkscape-font-specification:FreeSans" x="5.568" y="38.018" font-size="34.879" font-weight="400" fill="#fff" font-family="FreeSans"><tspan x="5.568" y="38.018">&amp;gt;</tspan></text><text style="line-height:125%;-inkscape-font-specification:Arial Bold" x="-112.714" y="82.154" font-size="40" font-weight="700" letter-spacing="0" word-spacing="0" font-family="Arial"><tspan x="-112.714" y="82.154" style="-inkscape-font-specification:Andale Mono" font-weight="400" font-family="Andale Mono">INSERT</tspan></text><text style="line-height:125%;-inkscape-font-specification:Andale Mono" x="21.564" y="82.154" font-size="40" font-weight="400" letter-spacing="0" word-spacing="0" font-family="Andale Mono"><tspan x="21.564" y="82.154">:AFTER</tspan></text><path style="line-height:125%;-inkscape-font-specification:Webdings" d="M-109.476 98.273h7.52L-102 128h-7.52l.044-29.727M-81 118v10h-7v-11c0-1.888.049-2.952-.043-3.668-.078-.716-.221-1.243-.43-1.582a2.8 2.8 0 0 0-1.113-1.055c-.468-.26-1.002-.39-1.601-.39-1.9.65-2.671 4.307-2.688 6.367L-94 128h-6.992v-22H-94l.125 2.762c1.224-1.486 3.124-2.756 3.875-2.762 2.526 0 4.44.775 5.742 2.324 1.315 1.55 3.258 3.72 3.258 6.676m21.739-8.758v5.313a26.151 26.151 0 0 0-4.336-1.407c-1.394-.312-2.709-.468-3.946-.468-1.328 0-2.317.169-2.968.507-.638.326-.957.834-.957 1.524 0 .56.24.99.722 1.289.495.3 1.374.52 2.637.664l1.23.176c3.581.456 5.99 1.204 7.227 2.246s1.855 2.676 1.855 4.902c0 2.331-.859 4.082-2.578 5.254-1.718 1.172-4.284 1.758-7.695 1.758-1.445 0-2.943-.117-4.492-.352a37.393 37.393 0 0 1-4.746-1.015v-5.313a20.229 20.229 0 0 0 4.277 1.524c1.471.338 2.962.508 4.473.508 1.367 0 2.396-.19 3.086-.567.69-.377 1.035-.937 1.035-1.68 0-.625-.241-1.087-.723-1.386-.469-.313-1.413-.554-2.832-.723l-1.23-.156c-3.112-.39-5.293-1.113-6.543-2.168-1.25-1.055-1.875-2.656-1.875-4.805 0-2.318.794-4.036 2.383-5.156 1.588-1.12 4.023-1.68 7.304-1.68 1.29 0 2.643.098 4.063.293a43.88 43.88 0 0 1 4.629.918" font-size="40" font-weight="400" letter-spacing="0" word-spacing="0" font-family="Webdings"/><path style="line-height:125%;-inkscape-font-specification:Webdings" d="M-34.687 116.438v1.992h-16.348c.17 1.64.762 2.87 1.778 3.691 1.015.82 2.434 1.23 4.257 1.23a16.69 16.69 0 0 0 4.512-.644c1.55-.443 3.138-1.107 4.766-1.992v5.39a29.53 29.53 0 0 1-4.961 1.407 25.63 25.63 0 0 1-4.961.488c-3.959 0-7.038-1.003-9.238-3.008-2.188-2.018-3.282-4.844-3.282-8.476 0-3.568 1.075-6.374 3.223-8.418 2.161-2.045 5.13-3.067 8.906-3.067 3.438 0 6.185 1.035 8.242 3.106 2.07 2.07 3.106 4.837 3.106 8.3m-7.188-2.324c0-1.328-.39-2.396-1.172-3.203-.768-.82-1.777-1.23-3.027-1.23-1.354 0-2.454.384-3.3 1.152-.847.755-1.374 1.849-1.583 3.281h9.082M-16 110c.036-.064-4.204.676-4.816.676-1.797 0-3.184.58-4.16 1.738-.964 1.146-1.446 2.793-1.446 4.941v10.079h-6.992v-21.875h6.992v3.593c.899-1.432 1.928-2.474 3.086-3.125 1.172-.664 2.572-.996 4.2-.996.234 0 .488.013.761.04" font-size="40" font-weight="400" letter-spacing="0" word-spacing="0" font-family="Webdings"/><path style="line-height:125%;-inkscape-font-specification:Webdings" d="M-6.011 99.348v6.21h7.207v5h-7.207v9.278c0 1.016.201 1.706.605 2.07.404.352 1.205.528 2.402.528H.59v5h-5.996c-2.76 0-4.72-.573-5.879-1.72-1.146-1.158-1.719-3.118-1.719-5.878v-9.277h-3.476v-5h3.476v-6.211h6.993m13.613 6.211h7.051v7.558h-7.05v-7.558m0 14.316h7.05v7.559h-7.05v-7.559m24.707-2.285c-1.459 0-2.56.247-3.301.742-.73.495-1.094 1.224-1.094 2.188 0 .885.293 1.582.879 2.09.599.494 1.426.742 2.48.742 1.315 0 2.422-.47 3.32-1.407.9-.95 1.348-2.135 1.348-3.554v-.801H32.31m10.683-2.637v12.48h-7.05v-3.242c-.938 1.329-1.993 2.299-3.165 2.91-1.172.6-2.597.899-4.277.899-2.266 0-4.108-.658-5.527-1.973-1.407-1.328-2.11-3.047-2.11-5.156 0-2.565.88-4.447 2.637-5.644 1.77-1.198 4.544-1.797 8.32-1.797h4.121v-.547c0-1.107-.436-1.914-1.308-2.422-.873-.52-2.233-.781-4.082-.781-1.498 0-2.89.15-4.18.449-1.29.3-2.487.749-3.594 1.348v-5.332a38.626 38.626 0 0 1 4.512-.82 35.16 35.16 0 0 1 4.531-.294c3.946 0 6.79.782 8.535 2.344 1.758 1.55 2.637 4.076 2.637 7.578m20.937-17.91v4.59h-3.867c-.99 0-1.68.182-2.07.547-.39.351-.586.97-.586 1.855v1.524h5.977v5h-5.977v16.875h-6.992v-16.875h-3.477v-5h3.477v-1.524c0-2.383.664-4.14 1.992-5.273 1.328-1.146 3.386-1.719 6.172-1.719h5.352m10.664 2.305v6.21h7.207v5h-7.207v9.278c0 1.016.201 1.706.605 2.07.404.352 1.205.528 2.402.528h3.594v5H75.2c-2.76 0-4.72-.573-5.879-1.72-1.146-1.158-1.719-3.118-1.719-5.878v-9.277h-3.476v-5h3.476v-6.211h6.993m33.339 17.09v1.992H91.588c.17 1.64.762 2.87 1.777 3.691 1.016.82 2.435 1.23 4.258 1.23 1.471 0 2.975-.214 4.512-.644 1.55-.443 3.138-1.107 4.765-1.992v5.39a29.53 29.53 0 0 1-4.96 1.407 25.63 25.63 0 0 1-4.962.488c-3.958 0-7.037-1.003-9.238-3.008-2.187-2.018-3.281-4.844-3.281-8.476 0-3.568 1.074-6.374 3.223-8.418 2.161-2.045 5.13-3.067 8.906-3.067 3.437 0 6.185 1.035 8.242 3.106 2.07 2.07 3.105 4.837 3.106 8.3m-7.188-2.324c0-1.328-.39-2.396-1.172-3.203-.768-.82-1.777-1.23-3.027-1.23-1.354 0-2.455.384-3.301 1.152-.846.755-1.374 1.849-1.582 3.281h9.082m28.71-2.597a8.504 8.504 0 0 0-1.836-.625 7.785 7.785 0 0 0-1.816-.215c-1.797 0-3.184.58-4.16 1.738-.964 1.146-1.446 2.793-1.446 4.941v10.079h-6.992v-21.875h6.992v3.593c.899-1.432 1.927-2.474 3.086-3.125 1.172-.664 2.572-.996 4.2-.996.234 0 .488.013.761.04.273.012.67.051 1.191.117l.02 6.328" font-size="40" font-weight="400" letter-spacing="0" word-spacing="0" font-family="Webdings"/><path style="line-height:125%;-inkscape-font-specification:Andale Mono" d="M-131.48 248H-144v-2.027h4.746v-15.946H-144V228h12.52v2.027h-4.57v15.946h4.57V248m18.7 0h-3.554l-9.883-15.79V248h-3.203v-20h3.574l9.922 15.648V228h3.144v20m15.498-17.502c-1.64-.391-3.197-.587-4.668-.587-1.667 0-3.027.269-4.082.806-1.042.528-1.563 1.283-1.563 2.266 0 1.165 1.374 2.189 4.122 3.072 2.03.655 3.372 1.11 4.023 1.365.664.255 1.335.605 2.012 1.051.677.446 1.217.974 1.62 1.584.417.6.626 1.278.626 2.034 0 1.875-.905 3.33-2.715 4.368-1.797 1.029-3.92 1.543-6.367 1.543-2.37 0-4.447-.328-6.23-.983l.663-1.925c2.097.665 3.926.997 5.489.997 1.823 0 3.28-.328 4.375-.983 1.106-.665 1.66-1.575 1.66-2.73 0-.856-.358-1.58-1.074-2.171-.717-.6-2.038-1.21-3.965-1.83-1.98-.637-3.262-1.069-3.848-1.296a8.635 8.635 0 0 1-1.719-.97c-.573-.41-1.015-.869-1.328-1.379a3.127 3.127 0 0 1-.469-1.665c0-1.593.82-2.835 2.461-3.727 1.641-.892 3.718-1.338 6.23-1.338 1.837 0 3.66.196 5.47.587l-.723 1.911M-78.737 248h-14.395v-20h14.277v2.027h-11.074v6.194h10.645v2.027H-89.93v7.725h11.192V248m20.908 0h-4.004l-8.086-9.086h-3.554V248h-3.203v-20h7.793c2.617 0 4.68.463 6.191 1.39 1.523.916 2.285 2.196 2.285 3.84 0 1.22-.553 2.306-1.66 3.26-1.107.945-2.63 1.588-4.57 1.928L-57.83 248m-15.644-11.113h4.043c1.692 0 3.066-.33 4.12-.992 1.056-.67 1.583-1.512 1.583-2.523 0-2.23-1.875-3.345-5.625-3.345h-4.121v6.86m35.919-7.002h-8.496V248h-3.183v-18.115h-8.536V228h20.215v1.885m180.063 3.467c.664 0 1.224.159 1.68.477.456.31.684.692.684 1.147 0 .455-.228.842-.684 1.16-.456.31-1.016.465-1.68.465-.65 0-1.204-.155-1.66-.464-.443-.319-.664-.706-.664-1.16 0-.456.221-.838.664-1.148.456-.318 1.01-.477 1.66-.477m0 11.413c.664 0 1.224.154 1.68.464.456.31.684.696.684 1.16 0 .455-.228.837-.684 1.147-.456.31-1.016.464-1.68.464-.65 0-1.204-.155-1.66-.464-.443-.31-.664-.692-.664-1.147 0-.464.221-.85.664-1.16.456-.31 1.01-.464 1.66-.464M177.626 248h-3.36l-3.047-6.744h-9.043L159.09 248h-3.32l9.004-19.263h3.848L177.626 248m-7.325-8.696l-3.613-7.973-3.594 7.973h7.207m27.949-8.614h-11.406v6.293h10.39v1.952h-10.39V248h-3.203v-19.263h14.61v1.952m26.503-.136h-8.496V248h-3.183v-17.447h-8.535v-1.816h20.214v1.816M246.004 248H231.61v-19.263h14.277v1.952h-11.074v5.966h10.645v1.953h-10.645v7.44h11.191V248m27.52 0h-4.004l-8.086-8.75h-3.555V248h-3.203v-19.263h7.793c2.617 0 4.681.446 6.192 1.338 1.523.883 2.285 2.116 2.285 3.7 0 1.174-.554 2.22-1.66 3.14-1.107.91-2.63 1.529-4.57 1.856l8.808 9.229m-15.645-10.703h4.043c1.693 0 3.067-.319 4.122-.956 1.054-.646 1.582-1.456 1.582-2.43 0-2.148-1.875-3.222-5.625-3.222h-4.122v6.608" font-size="33.442" font-weight="400" letter-spacing="0" word-spacing="0" font-family="Andale Mono"/><path style="line-height:125%;-inkscape-font-specification:Andale Mono" d="M-22.265 237.385c.35 0 .644.12.884.36.24.233.36.52.36.863 0 .343-.12.634-.36.874a1.22 1.22 0 0 1-.884.35c-.343 0-.634-.117-.874-.35a1.207 1.207 0 0 1-.35-.874c0-.343.117-.63.35-.863.24-.24.531-.36.874-.36m0 8.593c.35 0 .644.117.884.35.24.233.36.524.36.873 0 .343-.12.63-.36.864a1.22 1.22 0 0 1-.884.35c-.343 0-.634-.117-.874-.35a1.173 1.173 0 0 1-.35-.864c0-.35.117-.64.35-.873.24-.233.531-.35.874-.35m11.125 2.272h-1.594c-.13-.432-.195-1.008-.195-1.727-.911 1.336-2.152 2.004-3.72 2.004-.796 0-1.498-.28-2.108-.843-.603-.568-.905-1.298-.905-2.189 0-.528.107-.994.32-1.398a2.76 2.76 0 0 1 .934-1.018c.412-.28.912-.5 1.501-.657.59-.165 1.289-.278 2.097-.34l1.799-.143v-.514c0-1.837-.857-2.755-2.57-2.755-.404 0-.918.089-1.542.267a7.735 7.735 0 0 0-1.593.617l-.421-1.151c1.46-.747 2.816-1.12 4.07-1.12 2.44 0 3.66 1.29 3.66 3.874v4.605c0 .932.089 1.761.267 2.488m-1.871-3.176v-1.943c-1.446.13-2.44.253-2.981.37-.534.11-1 .319-1.398.627-.39.308-.586.726-.586 1.254 0 .48.168.867.504 1.161.336.295.764.442 1.285.442.569 0 1.134-.167 1.696-.503a5.05 5.05 0 0 0 1.48-1.408m10.329-11.164l-.422 1.306c-.76-.22-1.442-.329-2.045-.329-.576 0-.973.165-1.192.494-.213.322-.32.976-.32 1.963v.195h3.599v1.388H-6.66v9.323h-1.604v-9.323h-2.693v-1.388h2.693v-.36c0-1.363.233-2.32.7-2.868.465-.548 1.27-.822 2.415-.822.74 0 1.562.14 2.467.422m8.622 13.856c-1.075.493-2.134.74-3.176.74-1.912 0-2.868-1.011-2.868-3.033v-6.547h-2.055v-1.388h2.055v-2.93H1.46v2.93h3.639v1.388h-3.64v6.126c0 .651.145 1.158.433 1.521.287.357.678.535 1.171.535.877 0 1.744-.195 2.6-.586l.278 1.244m8.838-4.821h-7.35c0 1.213.35 2.213 1.049 3.001.706.788 1.57 1.182 2.59 1.182.973 0 1.977-.174 3.012-.524l.278 1.285c-.946.425-2.05.637-3.31.637-1.59 0-2.872-.51-3.845-1.531-.973-1.021-1.46-2.399-1.46-4.132 0-1.7.436-3.053 1.306-4.06.877-1.015 2.008-1.522 3.392-1.522 1.234 0 2.265.47 3.094 1.408.83.94 1.244 2.19 1.244 3.752v.504m-1.747-1.306c0-.836-.26-1.538-.782-2.107-.52-.575-1.103-.863-1.747-.863-.83 0-1.518.274-2.066.822-.542.548-.843 1.264-.905 2.148h5.5m10.215-3.813l-.647 1.542c-.706-.309-1.316-.463-1.83-.463-.473 0-.935.137-1.388.411-.452.268-.87.655-1.254 1.162-.376.5-.565.781-.565.843v6.928H15.97v-10.71h1.593v2.168c.857-1.617 1.967-2.426 3.33-2.426a5.4 5.4 0 0 1 2.354.545" font-size="21.051" font-weight="400" letter-spacing="0" word-spacing="0" font-family="Andale Mono"/><text style="-inkscape-font-specification:FreeSans" x="78.058" y="-252.848" transform="rotate(-165)" font-size="31.519" font-weight="400" font-family="FreeSans"><tspan x="78.058" y="-252.848">&amp;gt;</tspan></text><text style="-inkscape-font-specification:FreeSans" x="21.756" y="253.384" transform="rotate(15)" font-size="31.519" font-weight="400" font-family="FreeSans"><tspan x="21.756" y="253.384">&amp;gt;</tspan></text><path style="line-height:125%;-inkscape-font-specification:Andale Mono" d="M-121.533 313.225h-12.52v-1.953h4.747v-15.358h-4.746v-1.952h12.52v1.952h-4.571v15.358h4.57v1.953m20.173 0h-3.556l-9.882-15.208v15.208h-3.203v-19.263h3.574l9.922 15.072v-15.072h3.144v19.263m47.051 0h-14.395v-19.263h14.278v1.952h-11.074v5.966h10.644v1.952H-65.5v7.44h11.19v1.953m21.52 0h-4.004l-8.086-8.751h-3.555v8.75h-3.203v-19.262h7.793c2.617 0 4.68.446 6.191 1.338 1.524.883 2.285 2.116 2.285 3.7 0 1.174-.553 2.22-1.66 3.14-1.107.91-2.63 1.528-4.57 1.856l8.808 9.229m-15.644-10.703h4.043c1.693 0 3.066-.319 4.121-.956 1.055-.646 1.582-1.456 1.582-2.43 0-2.148-1.875-3.222-5.625-3.222h-4.121v6.608m34.828-6.744h-8.496v17.447h-3.184v-17.447h-8.535v-1.816h20.215v1.816" font-size="33.442" font-weight="400" letter-spacing="0" word-spacing="0" font-family="Andale Mono"/><text style="-inkscape-font-specification:FreeSans" x="-89.161" y="312.441" font-size="33.227" font-weight="400" font-family="FreeSans"><tspan x="-89.161" y="312.441">&amp;gt;</tspan></text><text style="-inkscape-font-specification:FreeSans" x="83.052" y="305.225" transform="scale(-1 1)" font-size="30.391" font-weight="400" font-family="FreeSans"><tspan x="83.052" y="305.225">&amp;gt;</tspan></text><path style="line-height:125%;-inkscape-font-specification:Andale Mono" d="M-14.317 302.61c.35 0 .644.12.884.36.24.232.36.52.36.863 0 .342-.12.634-.36.874a1.22 1.22 0 0 1-.884.349c-.343 0-.634-.116-.874-.35a1.207 1.207 0 0 1-.35-.873c0-.343.117-.63.35-.864.24-.24.531-.36.874-.36m0 8.594c.35 0 .644.116.884.35.24.232.36.524.36.873 0 .343-.12.63-.36.863a1.22 1.22 0 0 1-.884.35c-.343 0-.634-.117-.874-.35a1.173 1.173 0 0 1-.35-.863c0-.35.117-.64.35-.874.24-.233.531-.35.874-.35m11.124 2.273h-1.593c-.13-.432-.195-1.008-.195-1.727-.911 1.336-2.152 2.004-3.721 2.004-.795 0-1.497-.28-2.107-.843-.603-.569-.905-1.298-.905-2.19 0-.527.106-.993.319-1.397a2.76 2.76 0 0 1 .935-1.018c.411-.28.912-.5 1.501-.658.59-.164 1.288-.277 2.097-.339l1.799-.144v-.514c0-1.836-.857-2.755-2.57-2.755-.404 0-.918.09-1.542.268a7.735 7.735 0 0 0-1.593.616l-.422-1.15c1.46-.748 2.817-1.121 4.07-1.121 2.44 0 3.66 1.292 3.66 3.875v4.605c0 .932.09 1.761.267 2.488m-1.87-3.177v-1.942c-1.446.13-2.44.253-2.981.37-.535.11-1 .318-1.398.627-.39.308-.586.726-.586 1.254 0 .48.168.867.504 1.161.335.295.764.442 1.284.442.57 0 1.135-.168 1.697-.503a5.05 5.05 0 0 0 1.48-1.409m10.329-11.163l-.422 1.306c-.76-.22-1.442-.33-2.045-.33-.576 0-.973.165-1.193.494-.212.322-.318.977-.318 1.963v.196h3.597v1.387H1.288v9.324H-.316v-9.324h-2.693v-1.387h2.693v-.36c0-1.364.233-2.32.7-2.868.465-.548 1.27-.822 2.415-.822.74 0 1.562.14 2.467.421m8.622 13.856c-1.076.494-2.134.74-3.176.74-1.912 0-2.868-1.01-2.868-3.032v-6.548H5.788v-1.387h2.056v-2.93h1.563v2.93h3.638v1.387H9.407v6.127c0 .65.143 1.158.431 1.521.288.356.679.535 1.172.535a6.22 6.22 0 0 0 2.6-.586l.278 1.243m8.839-4.821h-7.35c0 1.213.35 2.214 1.049 3.002.705.788 1.569 1.182 2.59 1.182.973 0 1.977-.175 3.012-.524l.277 1.285c-.945.425-2.049.637-3.31.637-1.59 0-2.87-.51-3.844-1.532-.973-1.02-1.46-2.398-1.46-4.132 0-1.7.436-3.053 1.306-4.06.877-1.014 2.008-1.521 3.392-1.521 1.233 0 2.265.47 3.094 1.408.83.939 1.244 2.19 1.244 3.752v.504m-1.748-1.306c0-.836-.26-1.538-.78-2.107-.522-.576-1.104-.864-1.748-.864-.83 0-1.518.275-2.066.823-.542.548-.843 1.264-.905 2.148h5.5m10.215-3.813l-.647 1.541c-.706-.308-1.316-.462-1.83-.462-.473 0-.936.137-1.388.411-.452.267-.87.655-1.254 1.162-.377.5-.565.78-.565.842v6.929h-1.593v-10.711h1.593v2.169c.856-1.618 1.967-2.426 3.33-2.426.809 0 1.593.181 2.354.545" font-size="21.051" font-weight="400" letter-spacing="0" word-spacing="0" font-family="Andale Mono"/><path style="line-height:125%;-inkscape-font-specification:Andale Mono" d="M-119.533 521.296h-12.52v-1.952h4.747v-15.358h-4.746v-1.953h12.52v1.953h-4.571v15.358h4.57v1.952m20.173 0h-3.556l-9.882-11.208v11.208h-3.203v-15.263h3.574l9.922 11.072v-11.072h3.144v15.263m43.051 0h-14.395v-15.263h14.278v1.953h-11.074v3.965h10.644v1.953H-67.5v5.44h11.19v1.952m21.52 0h-4.004l-8.086-4.75h-3.555v4.75h-3.203v-15.263h7.793c2.617 0 4.68.446 6.191 1.338 1.524.883 2.285 2.116 2.285 3.7 0 1.174-.553 2.22-1.66 3.14-1.107.91-2.63 1.529-4.57 1.856l8.808 5.23m-15.644-6.704h4.043c1.693 0 3.066-.318 4.121-.956 1.055-.646 1.582-1.456 1.582-2.43 0-2.147-1.875-3.221-5.625-3.221h-4.121v6.607m34.828-10.744h-8.496v17.447h-3.184V503.85h-8.535v-1.816h20.215v1.816" font-size="33.442" font-weight="400" letter-spacing="0" word-spacing="0" font-family="Andale Mono"/><text style="-inkscape-font-specification:FreeSans" x="-91.052" y="521.296" font-size="33.227" font-weight="400" font-family="FreeSans"><tspan x="-91.052" y="521.296">&amp;gt;</tspan></text><text style="-inkscape-font-specification:FreeSans" x="81.052" y="514.296" transform="scale(-1 1)" font-size="30.391" font-weight="400" font-family="FreeSans"><tspan x="81.052" y="514.296">&amp;gt;</tspan></text><path style="line-height:125%;-inkscape-font-specification:Andale Mono" d="M-16.317 510.681c.35 0 .644.12.884.36.24.233.36.52.36.863 0 .343-.12.634-.36.874a1.22 1.22 0 0 1-.884.35c-.343 0-.634-.117-.874-.35a1.207 1.207 0 0 1-.35-.874c0-.342.117-.63.35-.863.24-.24.531-.36.874-.36m0 8.593c.35 0 .644.117.884.35.24.233.36.524.36.873 0 .343-.12.63-.36.864a1.22 1.22 0 0 1-.884.35c-.343 0-.634-.117-.874-.35a1.173 1.173 0 0 1-.35-.864c0-.349.117-.64.35-.873.24-.233.531-.35.874-.35m11.124 2.272h-1.593c-.13-.432-.195-1.007-.195-1.727-.911 1.336-2.152 2.004-3.721 2.004-.795 0-1.497-.28-2.107-.842-.603-.57-.905-1.299-.905-2.19 0-.527.106-.993.319-1.398a2.76 2.76 0 0 1 .935-1.017c.411-.281.912-.5 1.501-.658.59-.165 1.288-.278 2.097-.34l1.799-.143v-.514c0-1.837-.857-2.755-2.57-2.755-.404 0-.918.089-1.542.267a7.735 7.735 0 0 0-1.593.617l-.422-1.151c1.46-.747 2.817-1.12 4.07-1.12 2.44 0 3.66 1.291 3.66 3.874v4.605c0 .932.09 1.762.267 2.488m-1.87-3.176v-1.943c-1.446.13-2.44.254-2.981.37-.535.11-1 .319-1.398.627-.39.308-.586.726-.586 1.254 0 .48.168.867.504 1.162.335.294.764.442 1.284.442.57 0 1.135-.168 1.697-.504a5.05 5.05 0 0 0 1.48-1.408m10.329-11.163l-.422 1.305c-.76-.22-1.442-.329-2.045-.329-.576 0-.973.165-1.193.494-.212.322-.318.976-.318 1.963v.195h3.597v1.388H-.712v9.323h-1.604v-9.323h-2.693v-1.388h2.693v-.36c0-1.363.233-2.32.7-2.867.465-.549 1.27-.823 2.415-.823.74 0 1.562.14 2.467.422m8.622 13.856c-1.076.493-2.134.74-3.176.74-1.912 0-2.868-1.01-2.868-3.032v-6.548H3.788v-1.388h2.056v-2.93h1.563v2.93h3.638v1.388H7.407v6.126c0 .651.143 1.158.431 1.521.288.357.679.535 1.172.535.877 0 1.744-.195 2.6-.586l.278 1.244m8.839-4.821h-7.35c0 1.213.35 2.213 1.049 3.001.705.789 1.569 1.183 2.59 1.183.973 0 1.977-.175 3.012-.525l.277 1.285c-.945.425-2.049.637-3.31.637-1.59 0-2.87-.51-3.844-1.531-.973-1.021-1.46-2.399-1.46-4.132 0-1.7.436-3.053 1.306-4.06.877-1.015 2.008-1.522 3.392-1.522 1.233 0 2.265.47 3.094 1.408.83.94 1.244 2.19 1.244 3.752v.504m-1.748-1.305c0-.836-.26-1.539-.78-2.108-.522-.575-1.104-.863-1.748-.863-.83 0-1.518.274-2.066.822-.542.548-.843 1.265-.905 2.149h5.5m10.215-3.814l-.647 1.542c-.706-.308-1.316-.463-1.83-.463-.473 0-.936.137-1.388.411-.452.268-.87.655-1.254 1.162-.377.5-.565.781-.565.843v6.928h-1.593v-10.71h1.593v2.168c.856-1.617 1.967-2.426 3.33-2.426.809 0 1.593.182 2.354.545" font-size="21.051" font-weight="400" letter-spacing="0" word-spacing="0" font-family="Andale Mono"/><path d="M-132.052 503.986v-1.953h36.52v1.953m13.48 0v-1.953h66.52v1.953m-121.299-103.763h-12.52v-2.027h4.746V382.25h-4.746v-2.027h12.52v2.027h-4.57v15.946h4.57v2.027m18.701 0h-3.555l-9.883-15.79v15.79h-3.203v-20h3.574l9.922 15.649v-15.649h3.144v20m15.498-17.501c-1.64-.392-3.197-.587-4.668-.587-1.667 0-3.027.268-4.082.805-1.042.528-1.562 1.283-1.562 2.266 0 1.165 1.373 2.19 4.12 3.072 2.032.655 3.373 1.11 4.024 1.365.664.255 1.335.605 2.012 1.051.677.446 1.217.974 1.62 1.584.418.6.626 1.279.626 2.034 0 1.875-.905 3.331-2.715 4.369-1.797 1.028-3.92 1.542-6.367 1.542-2.37 0-4.447-.327-6.23-.983l.663-1.924c2.097.664 3.926.996 5.489.996 1.823 0 3.281-.328 4.375-.983 1.106-.664 1.66-1.574 1.66-2.73 0-.856-.358-1.58-1.074-2.17-.716-.602-2.038-1.211-3.965-1.83-1.98-.637-3.262-1.07-3.848-1.297a8.635 8.635 0 0 1-1.719-.97c-.572-.409-1.015-.869-1.328-1.378a3.127 3.127 0 0 1-.468-1.666c0-1.592.82-2.835 2.46-3.727 1.641-.892 3.718-1.338 6.231-1.338 1.836 0 3.659.196 5.469.587l-.723 1.912m18.545 17.501h-14.395v-20h14.277v2.027H-95.28v6.195h10.645v2.026H-95.28v7.725h11.192v2.027m20.908 0h-4.005l-8.085-9.085h-3.555v9.085h-3.203v-20h7.793c2.617 0 4.68.463 6.191 1.39 1.524.916 2.285 2.197 2.285 3.84 0 1.22-.553 2.306-1.66 3.26-1.107.946-2.63 1.588-4.57 1.929l8.808 9.581m-15.644-11.112h4.043c1.693 0 3.066-.331 4.12-.993 1.056-.67 1.583-1.511 1.583-2.523 0-2.23-1.875-3.345-5.625-3.345h-4.121v6.86m35.919-7.001h-8.496v18.114h-3.183V382.11h-8.535v-1.886h20.214v1.886" style="line-height:125%;-inkscape-font-specification:Andale Mono" font-size="33.442" font-weight="400" letter-spacing="0" word-spacing="0" font-family="Andale Mono"/><path style="line-height:125%;-inkscape-font-specification:Andale Mono" d="M-27.616 389.608c.35 0 .644.12.884.36.24.233.36.52.36.863 0 .343-.12.634-.36.874a1.22 1.22 0 0 1-.884.35c-.343 0-.634-.117-.874-.35a1.207 1.207 0 0 1-.35-.873c0-.343.117-.63.35-.864.24-.24.531-.36.874-.36m0 8.594c.35 0 .644.116.884.349.24.233.36.524.36.874 0 .342-.12.63-.36.863a1.22 1.22 0 0 1-.884.35c-.343 0-.634-.117-.874-.35a1.173 1.173 0 0 1-.35-.863c0-.35.117-.641.35-.874.24-.233.531-.35.874-.35m11.125 2.272h-1.593c-.13-.432-.196-1.007-.196-1.727-.911 1.337-2.151 2.005-3.72 2.005-.796 0-1.498-.281-2.108-.843-.603-.569-.904-1.299-.904-2.19 0-.527.106-.993.318-1.398a2.76 2.76 0 0 1 .936-1.017c.41-.281.911-.5 1.5-.658.59-.164 1.289-.278 2.097-.34l1.799-.143v-.514c0-1.837-.857-2.755-2.57-2.755-.404 0-.918.09-1.542.267a7.735 7.735 0 0 0-1.593.617l-.421-1.151c1.46-.747 2.816-1.12 4.07-1.12 2.44 0 3.66 1.291 3.66 3.875v4.605c0 .932.089 1.76.267 2.487m-1.871-3.176v-1.943c-1.446.13-2.44.254-2.98.37a3.353 3.353 0 0 0-1.399.627c-.39.309-.586.727-.586 1.254 0 .48.168.867.504 1.162.336.295.764.442 1.285.442.569 0 1.134-.168 1.696-.504a5.05 5.05 0 0 0 1.48-1.408m10.329-11.163l-.421 1.305c-.761-.219-1.443-.328-2.046-.329-.576 0-.973.165-1.192.494-.213.322-.319.976-.319 1.963v.195h3.598v1.388h-3.598v9.323h-1.604v-9.323h-2.693v-1.388h2.693v-.36c0-1.363.233-2.319.7-2.867.465-.548 1.27-.822 2.415-.822.74 0 1.562.14 2.467.421M.59 399.99c-1.076.493-2.135.74-3.177.74-1.912 0-2.867-1.01-2.867-3.032v-6.548H-7.51v-1.388h2.056v-2.929h1.562v2.93h3.639v1.387h-3.64v6.126c0 .651.145 1.159.433 1.522.287.356.678.534 1.171.534.878 0 1.744-.195 2.601-.586l.278 1.244m8.838-4.82h-7.35c0 1.212.35 2.213 1.049 3 .706.789 1.57 1.183 2.59 1.183.973 0 1.977-.175 3.012-.524l.278 1.284c-.946.425-2.05.638-3.31.638-1.59 0-2.872-.51-3.845-1.532-.973-1.02-1.46-2.398-1.46-4.132 0-1.7.436-3.053 1.306-4.06.877-1.014 2.008-1.521 3.392-1.521 1.234 0 2.265.469 3.094 1.408.83.939 1.244 2.19 1.244 3.752v.503m-1.747-1.305c0-.836-.26-1.539-.782-2.107-.52-.576-1.103-.864-1.747-.864-.83 0-1.518.274-2.066.822-.541.549-.843 1.265-.905 2.149h5.5m10.215-3.814l-.647 1.542c-.706-.308-1.316-.462-1.83-.462-.473 0-.935.137-1.387.41-.453.268-.87.655-1.254 1.162-.377.5-.566.781-.566.843v6.928H10.62v-10.71h1.593v2.168c.857-1.617 1.967-2.425 3.33-2.425a5.4 5.4 0 0 1 2.354.544" font-size="21.051" font-weight="400" letter-spacing="0" word-spacing="0" font-family="Andale Mono"/><text style="-inkscape-font-specification:FreeSans" x="43.828" y="-401.269" transform="rotate(-165)" font-size="31.519" font-weight="400" font-family="FreeSans"><tspan x="43.828" y="-401.269">&amp;gt;</tspan></text><text style="-inkscape-font-specification:FreeSans" x="55.986" y="401.806" transform="rotate(15)" font-size="31.519" font-weight="400" font-family="FreeSans"><tspan x="55.986" y="401.806">&amp;gt;</tspan></text></svg>